<svg xmlns="http://www.w3.org/2000/svg" width="25" height="25"><g fill="#fff" transform="translate(4.5 -1031.862)"><circle cx="8" cy="1044.362" r="12.5" fill="#239fdb" fill-rule="evenodd"/><path style="line-height:normal;text-indent:0;text-align:start;text-decoration-line:none;text-decoration-style:solid;text-decoration-color:#000;text-transform:none;block-progression:tb;isolation:auto;mix-blend-mode:normal" fill="#0b5ecd" d="M15.064 24.719a12.5 12.5 0 0 0 .78-.174 12.5 12.5 0 0 0 1.185-.395 12.5 12.5 0 0 0 1.14-.51 12.5 12.5 0 0 0 1.085-.622 12.5 12.5 0 0 0 1.016-.727 12.5 12.5 0 0 0 .939-.824 12.5 12.5 0 0 0 .852-.914 12.5 12.5 0 0 0 .755-.994 12.5 12.5 0 0 0 .655-1.067 12.5 12.5 0 0 0 .543-1.125 12.5 12.5 0 0 0 .427-1.174 12.5 12.5 0 0 0 .28-1.095l-4.924-4.926A3.988 3.988 0 0 0 16.969 9H9c-2.207 0-4 1.793-4 4 0 1.104.448 2.104 1.172 2.828l8.892 8.89z" color="#000" font-family="sans-serif" font-weight="400" transform="translate(-4.5 1031.862)"/><path style="line-height:normal;text-indent:0;text-align:start;text-decoration-line:none;text-decoration-style:solid;text-decoration-color:#000;text-transform:none;block-progression:tb;isolation:auto;mix-blend-mode:normal" d="M4.5 1040.862c-2.207 0-4 1.793-4 4 0 2.208 1.793 4 4 4h7.969c2.207 0 4-1.792 4-4 0-2.207-1.793-4-4-4H4.5zm0 1h7.969c1.67 0 3 1.33 3 3s-1.33 3-3 3H4.5c-1.67 0-3-1.33-3-3s1.33-3 3-3zm-.031 1c-1.099 0-2 .902-2 2 0 1.099.901 2 2 2 1.098 0 2-.901 2-2 0-1.098-.902-2-2-2zm0 1c.558 0 1 .442 1 1s-.442 1-1 1-1-.442-1-1 .442-1 1-1z" color="#000" font-family="sans-serif" font-weight="400" overflow="visible"/></g></svg>